<svg id="visual" viewBox="0 0 900 600" width="900" height="600" xmlns="http://www.w3.org/2000/svg" xmlns:xlink="http://www.w3.org/1999/xlink" version="1.1"><rect x="0" y="0" width="900" height="600" fill="#fff"></rect><defs><linearGradient id="grad1_0" x1="33.3%" y1="0%" x2="100%" y2="100%"><stop offset="20%" stop-color="#fff" stop-opacity="1"></stop><stop offset="80%" stop-color="#fff" stop-opacity="1"></stop></linearGradient></defs><defs><linearGradient id="grad2_0" x1="0%" y1="0%" x2="66.7%" y2="100%"><stop offset="20%" stop-color="#fff" stop-opacity="1"></stop><stop offset="80%" stop-color="#fff" stop-opacity="1"></stop></linearGradient></defs><g transform="translate(900, 0)"><path d="M0 324.5C-59.4 317.6 -118.9 310.6 -162.2 281C-205.6 251.4 -232.9 199.1 -257.2 148.5C-281.6 97.9 -303 48.9 -324.5 0L0 0Z" fill="#8f4cce"></path></g><g transform="translate(0, 600)"><path d="M0 -324.5C56.9 -316.1 113.8 -307.7 162.2 -281C210.7 -254.3 250.6 -209.4 276.3 -159.5C301.9 -109.6 313.2 -54.8 324.5 0L0 0Z" fill="#8f4cce"></path></g></svg>